<?xml version="1.0" ?>

<!DOCTYPE svg  PUBLIC '-//W3C//DTD SVG 1.1//EN'  'http://www.w3.org/Graphics/SVG/1.1/DTD/svg11.dtd'>

<!-- Uploaded to: SVG Repo, www.svgrepo.com, Generator: SVG Repo Mixer Tools -->
<svg width="800px" height="800px" viewBox="0 0 32 32" id="_x3C_Layer_x3E_" version="1.1" xml:space="preserve" xmlns="http://www.w3.org/2000/svg" xmlns:xlink="http://www.w3.org/1999/xlink">

<style type="text/css">
<![CDATA[
	.st0{fill:#E3F2FD;}
	.st1{fill:#80D8FF;}
	.st2{fill:#1AD2A4;}
	.st3{fill:#ECEFF1;}
	.st4{fill:#55FB9B;}
	.st5{fill:#BBDEFB;}
	.st6{fill:#C1AEE1;}
	.st7{fill:#FF5252;}
	.st8{fill:#FF8A80;}
	.st9{fill:#DC2626;}
	.st10{fill:#FFF176;}
	.st11{fill:#FFFFFF;}
	.st12{fill:#65C7EA;}
	.st13{fill:#CFD8DC;}
	.st14{fill:#37474F;}
	.st15{fill:#4F46E5;}
	.st16{fill:#42A5F5;}
	.st17{fill:#455A64;}
]]>
</style>

<g id="Monero_x2C__crypto">

<g id="XMLID_21_">

<g id="XMLID_23_">

<path class="st11" d="M30.5,16c0,8.01-6.49,14.5-14.5,14.5S1.5,24.01,1.5,16C1.5,7.99,7.99,1.5,16,1.5S30.5,7.99,30.5,16z"/>

</g>

<g id="XMLID_24_">

<path class="st15" d="M22.28,23.53h6.11C25.85,27.71,21.25,30.5,16,30.5s-9.85-2.79-12.39-6.97h2.97h3.14v-7.67     l4.11,4.11L16,22.14l2.17-2.17l4.11-4.11V23.53z" id="XMLID_25_"/>

</g>

<g id="XMLID_26_">

<path class="st9" d="M16,1.5c8.01,0,14.51,6.49,14.5,14.5c0,1.6-0.26,3.06-0.74,4.5h-4.34V9.59     c0-0.45-0.54-0.67-0.85-0.36L16,17.8L7.43,9.23C7.11,8.92,6.58,9.14,6.58,9.59V20.5H2.24C1.76,19.06,1.5,17.6,1.5,16     C1.49,8,7.99,1.5,16,1.5z" id="XMLID_27_"/>

</g>

</g>

<g id="XMLID_28_">

<g id="XMLID_29_">

<path class="st17" d="M16,31c-5.28,0-10.07-2.7-12.82-7.21c-0.09-0.15-0.1-0.35-0.01-0.5     c0.09-0.16,0.25-0.25,0.44-0.25h5.61v-7.17c0-0.2,0.12-0.38,0.31-0.46c0.19-0.08,0.4-0.03,0.54,0.11L16,21.43l5.93-5.93     c0.14-0.14,0.36-0.19,0.54-0.11c0.19,0.08,0.31,0.26,0.31,0.46v7.17h5.61c0.18,0,0.35,0.1,0.44,0.25     c0.09,0.16,0.09,0.35-0.01,0.5C26.07,28.3,21.28,31,16,31z M4.53,24.03C7.15,27.78,11.37,30,16,30s8.85-2.22,11.47-5.97h-5.19     c-0.28,0-0.5-0.22-0.5-0.5v-6.46l-5.43,5.43c-0.2,0.2-0.51,0.2-0.71,0l-2.17-2.17l0,0l-3.26-3.26v6.46c0,0.28-0.22,0.5-0.5,0.5     H4.53z" id="XMLID_741_"/>

</g>

<g id="XMLID_39_">

<path class="st17" d="M29.76,21h-4.34c-0.28,0-0.5-0.22-0.5-0.5V9.59l-8.57,8.56c-0.2,0.2-0.51,0.2-0.71,0     L7.08,9.58l0,10.92c0,0.28-0.22,0.5-0.5,0.5H2.24c-0.22,0-0.41-0.14-0.47-0.34C1.25,19.11,1,17.59,1,16     C0.99,12,2.55,8.24,5.38,5.4C8.22,2.56,11.99,1,16,1c4.01,0,7.78,1.56,10.62,4.4C29.45,8.23,31,12,31,16     c0,1.59-0.25,3.11-0.77,4.66C30.17,20.86,29.98,21,29.76,21z M25.92,20h3.48c0.41-1.32,0.6-2.64,0.6-4     c0-3.74-1.45-7.25-4.09-9.89C23.27,3.46,19.75,2,16,2c-3.74,0-7.26,1.46-9.91,4.11C3.45,8.76,2,12.27,2,16c0,1.36,0.2,2.68,0.6,4     h3.48V9.59c0-0.41,0.23-0.77,0.61-0.92c0.37-0.16,0.8-0.08,1.09,0.21L16,17.09l8.22-8.22c0.29-0.29,0.71-0.37,1.08-0.21     c0.38,0.16,0.62,0.52,0.62,0.93V20z" id="XMLID_738_"/>

</g>

</g>

</g>

</svg>